:SAMPLES-PER-SECOND 30
:FULLY-SPECIFIED
:DEGREES
107
root  -25.3608 38.633 8.67561 179.633 4.56898 172.442
RightUpLeg  18.1457 -2.37593 -5.33026
RightLeg  16.4217 8.46437 1.76644
RightFoot  -21.2837 -0.649706 -5.85168
RightToes  1.74622e-010 0 -3.6325e-017
Spine  2.25065 2.48371 3.57755
Spine1  9.62951 4.31806 -6.09117
HEad  -3.39413 -5.48505 2.85446
LeftShoulder1  7.8983 -11.416 -46.1646
LeftArm  -12.7841 23.3895 -25.89
LeftForeArm  24.0878 -25.8585 -4.26313
LeftHand  -0.244104 0.0205437 5.32207
RightShoulder  6.86807 10.3913 43.0794
RightArm  5.89993 -8.49325 30.6689
RightForeArm  3.13696 11.9567 8.57601
RightHand  -1.15507 2.45121 -17.2054
LeftUpLeg  -25.3413 5.67955 -4.16246
LeftLeg  9.4351 9.94858 -1.94376
LeftFoot  4.10295 0.285639 -2.34455
LeftToes  -2.63786e-011 -1.12672e-010 -2.07835e-011
108
root  -25.695 38.4301 6.94431 178.643 5.35045 171.726
RightUpLeg  19.281 1.00533 -6.19381
RightLeg  20.6797 6.34146 2.46196
RightFoot  -19.2321 -0.217222 -1.09032
RightToes  1.74622e-010 0 -3.6325e-017
Spine  1.97708 2.75412 0.278232
Spine1  9.42004 4.03028 -4.1882
HEad  -3.00758 -4.68515 3.50906
LeftShoulder1  7.85581 -11.2885 -46.3149
LeftArm  -13.7284 23.3486 -24.481
LeftForeArm  23.6742 -25.4215 -4.18679
LeftHand  -0.244104 0.0205437 5.32207
RightShoulder  6.94257 10.4074 43.5211
RightArm  0.933441 -10.5315 29.3102
RightForeArm  8.48308 6.58568 9.02981
RightHand  -1.03655 1.73363 -16.9797
LeftUpLeg  -25.761 9.2215 -8.05515
LeftLeg  15.4502 4.16537 0.650575
LeftFoot  6.92697 -0.141114 0.667079
LeftToes  -2.63786e-011 -1.12672e-010 -2.07835e-011
109
root  -25.9865 38.3875 5.3036 177.613 5.19108 171.029
RightUpLeg  17.6753 1.31076 -7.71564
RightLeg  29.1052 6.06298 3.42196
RightFoot  -12.2005 -0.0764377 4.07358
RightToes  1.74622e-010 0 -3.6325e-017
Spine  2.4006 2.59211 -2.82228
Spine1  8.74921 3.34618 -2.46377
HEad  -2.63182 -4.13839 4.28729
LeftShoulder1  7.88824 -11.3346 -46.3639
LeftArm  -14.3647 22.4657 -23.3458
LeftForeArm  22.2085 -23.1369 -3.82677
LeftHand  -0.244104 0.0205437 5.32207
RightShoulder  6.9753 10.3593 43.8968
RightArm  -0.305538 -12.9801 28.5957
RightForeArm  11.2968 3.85711 8.38809
RightHand  -0.947944 1.20387 -16.7578
LeftUpLeg  -25.0504 7.71899 -9.33178
LeftLeg  20.6308 4.69761 2.41905
LeftFoot  5.44271 -0.318427 1.93529
LeftToes  -2.63786e-011 -1.12672e-010 -2.07835e-011
110
root  -26.2788 38.4967 3.84554 176.724 5.54653 170.567
RightUpLeg  12.4057 2.11375 -8.78417
RightLeg  40.8928 4.58512 3.9299
RightFoot  -0.251651 -0.697321 7.33975
RightToes  1.74622e-010 0 -3.6325e-017
Spine  3.20779 2.48946 -4.28626
Spine1  8.27441 3.13369 -2.40106
HEad  -2.72084 -3.649 4.83001
LeftShoulder1  7.88413 -11.4654 -45.9224
LeftArm  -15.3375 20.7531 -22.8758
LeftForeArm  20.6973 -19.9144 -3.49921
LeftHand  -0.244104 0.0205437 5.32207
RightShoulder  6.96367 10.3638 43.8054
RightArm  -1.16388 -15.4865 28.8685
RightForeArm  13.5917 3.38322 7.88624
RightHand  -0.825905 0.64509 -15.9252
LeftUpLeg  -23.1755 6.2785 -9.74904
LeftLeg  23.9028 6.54626 3.48913
LeftFoot  1.21666 -0.240811 2.11641
LeftToes  -2.63786e-011 -1.12672e-010 -2.07835e-011
111
root  -26.5687 38.6705 2.58767 175.959 7.28676 170.012
RightUpLeg  4.83206 4.03107 -9.64741
RightLeg  52.6863 2.1157 2.54688
RightFoot  9.40527 -1.29058 7.47822
RightToes  1.74622e-010 0 -3.6325e-017
Spine  4.07017 2.68529 -4.96678
Spine1  8.2633 3.39887 -3.54009
HEad  -3.1478 -2.57537 4.57308
LeftShoulder1  7.81217 -11.4976 -45.3882
LeftArm  -16.6515 19.1305 -22.7749
LeftForeArm  19.994 -17.7413 -3.33483
LeftHand  -0.244104 0.0205437 5.32207
RightShoulder  6.94352 10.4724 43.3135
RightArm  -1.01103 -17.227 29.6831
RightForeArm  14.747 4.43724 7.90113
RightHand  -0.661124 -0.0239676 -14.3223
LeftUpLeg  -20.7552 7.87565 -10.5454
LeftLeg  24.8885 6.60593 3.67379
LeftFoot  -2.20054 -0.160656 2.17434
LeftToes  -2.63786e-011 -1.12672e-010 -2.07835e-011
112
root  -26.8448 38.9789 1.33282 175.186 9.08275 169.905
RightUpLeg  -2.57084 5.1656 -10.0191
RightLeg  61.6201 -0.183192 -0.883844
RightFoot  11.6916 -1.03064 5.40252
RightToes  1.74622e-010 0 -3.6325e-017
Spine  4.88587 2.52557 -5.24286
Spine1  8.05496 3.22756 -3.89982
HEad  -3.57151 -0.759331 3.3877
LeftShoulder1  7.80287 -11.4716 -45.4135
LeftArm  -17.162 18.3542 -22.3864
LeftForeArm  19.8849 -17.6658 -3.29052
LeftHand  -0.244104 0.0205437 5.32207
RightShoulder  6.85863 10.4764 42.7377
RightArm  0.544549 -17.7126 30.3631
RightForeArm  15.3283 6.29984 8.34177
RightHand  -0.538433 -0.512742 -12.8265
LeftUpLeg  -17.4735 10.7495 -10.7775
LeftLeg  23.8912 5.68165 3.10056
LeftFoot  -3.71598 -0.11797 2.10504
LeftToes  -2.63786e-011 -1.12672e-010 -2.07835e-011
113
root  -27.096 39.418 0.0651014 174.443 9.66168 170.494
RightUpLeg  -8.73832 4.37359 -9.68001
RightLeg  66.1795 -1.43138 -4.14572
RightFoot  9.31467 -0.558096 3.42025
RightToes  1.74622e-010 0 -3.6325e-017
Spine  5.86363 1.73024 -5.25391
Spine1  7.55088 2.23627 -3.05375
HEad  -3.93891 1.19418 1.84996
LeftShoulder1  7.92372 -11.5466 -45.9037
LeftArm  -16.6849 18.2236 -21.7595
LeftForeArm  20.4741 -19.1312 -3.39834
LeftHand  -0.244104 0.0205437 5.32207
RightShoulder  6.6623 10.2204 42.2594
RightArm  3.23452 -17.4476 30.886
RightForeArm  15.1045 8.96731 8.54766
RightHand  -0.4967 -0.644196 -12.1404
LeftUpLeg  -13.2035 13.0149 -10.1736
LeftLeg  21.358 4.49794 2.27562
LeftFoot  -4.37158 -0.0863852 1.85057
LeftToes  -2.63786e-011 -1.12672e-010 -2.07835e-011
114
root  -27.3192 39.772 -1.1314 173.744 9.4531 171.329
RightUpLeg  -13.8192 2.90678 -9.02572
RightLeg  66.3717 -1.61009 -4.71571
RightFoot  7.04094 -0.482361 3.28788
RightToes  1.74622e-010 0 -3.6325e-017
Spine  7.00276 0.840751 -5.18253
Spine1  7.24036 1.04283 -2.17129
HEad  -4.36458 2.66547 0.65765
LeftShoulder1  8.04007 -11.6712 -46.206
LeftArm  -15.9944 18.0971 -21.6223
LeftForeArm  21.7743 -21.3349 -3.5745
LeftHand  -0.244104 0.0205437 5.32207
RightShoulder  6.45722 9.90425 41.9016
RightArm  6.63216 -17.2912 31.5378
RightForeArm  12.2013 12.5723 7.90834
RightHand  -0.499996 -0.600592 -12.1102
LeftUpLeg  -8.99271 14.0329 -9.07925
LeftLeg  19.0899 3.63256 1.31691
LeftFoot  -5.41803 -0.0610314 1.81841
LeftToes  -2.63786e-011 -1.12672e-010 -2.07835e-011
115
root  -27.5124 39.9995 -2.30055 173.068 9.19061 172.013
RightUpLeg  -17.8759 1.95612 -8.35959
RightLeg  62.8754 -1.46903 -3.6928
RightFoot  6.18809 -0.57721 4.01723
RightToes  1.74622e-010 0 -3.6325e-017
Spine  8.02828 0.219412 -5.11323
Spine1  7.19452 0.171065 -1.72239
HEad  -4.80403 3.56062 -0.0326527
LeftShoulder1  8.02956 -11.689 -46.0877
LeftArm  -15.7977 17.7562 -22.2313
LeftForeArm  23.4083 -24.0957 -3.91898
LeftHand  -0.244104 0.0205437 5.32207
RightShoulder  6.36428 9.78059 41.6666
RightArm  9.52879 -17.4959 32.2723
RightForeArm  6.55875 16.4583 6.64264
RightHand  -0.531003 -0.481602 -12.555
LeftUpLeg  -5.12377 13.1149 -7.68823
LeftLeg  17.4588 4.33911 -0.0605737
LeftFoot  -6.51857 -0.0437925 1.96978
LeftToes  -2.63786e-011 -1.12672e-010 -2.07835e-011
116
root  -27.6687 40.1721 -3.4778 172.46 8.7184 172.556
RightUpLeg  -20.6693 0.966178 -7.69934
RightLeg  56.2749 -1.70848 -3.16763
RightFoot  4.82845 -0.538345 4.0101
RightToes  1.74622e-010 0 -3.6325e-017
Spine  8.93381 -0.235796 -5.14939
Spine1  7.06445 -0.50643 -1.13004
HEad  -5.07971 4.01827 -0.430518
LeftShoulder1  7.97846 -11.6393 -45.9402
LeftArm  -15.7719 17.3576 -22.99
LeftForeArm  24.7427 -27.408 -4.56875
LeftHand  -0.244104 0.0205437 5.32207
RightShoulder  6.34574 9.77711 41.5475
RightArm  10.771 -17.7131 32.9247
RightForeArm  1.07915 19.6829 5.56109
RightHand  -0.605676 -0.166143 -13.476
LeftUpLeg  -1.46525 11.235 -6.49909
LeftLeg  15.8581 5.728 -1.45064
LeftFoot  -7.22623 -0.0183328 1.71316
LeftToes  -2.63786e-011 -1.12672e-010 -2.07835e-011
